<svg xmlns="http://www.w3.org/2000/svg" version="1.1" xmlns:xlink="http://www.w3.org/1999/xlink" xmlns:svgjs="http://svgjs.dev/svgjs" width="2000" height="1500" viewBox="0 0 2000 1500"><rect width="2000" height="1500" fill="#ffffff"></rect><g transform="matrix(0.75,0,0,0.75,249.090909090909,624.8339682378091)"><svg viewBox="0 0 396 66" data-background-color="#ffffff" preserveAspectRatio="xMidYMid meet" height="333" width="2000" xmlns="http://www.w3.org/2000/svg" xmlns:xlink="http://www.w3.org/1999/xlink"><g id="tight-bounds" transform="matrix(1,0,0,1,0.2400000000000091,0.07690929451288753)"><svg viewBox="0 0 395.52 65.84618141097424" height="65.84618141097424" width="395.52"><g><svg viewBox="0 0 395.52 65.84618141097424" height="65.84618141097424" width="395.52"><g><svg viewBox="0 0 395.52 65.84618141097424" height="65.84618141097424" width="395.52"><g id="textblocktransform"><svg viewBox="0 0 395.52 65.84618141097424" height="65.84618141097424" width="395.52" id="textblock"><g><svg viewBox="0 0 395.52 65.84618141097424" height="65.84618141097424" width="395.52"><g transform="matrix(1,0,0,1,0,0)"><svg width="395.52" viewBox="1 -37.5 267.89 44.6" height="65.84618141097424" data-palette-color="#000000"><path d="M18.3 0L1 0Q1-3.55 1-7.1 1-10.65 1-14.23 1-17.8 1-21.35L1-21.35Q1-23.8 1-26.2 1-28.6 1-31L1-31 18.3-31Q18.3-27.7 18.3-24.43 18.3-21.15 18.3-17.85L18.3-17.85Q18.3-13.4 18.3-8.93 18.3-4.45 18.3 0L18.3 0ZM41.2 0L23.9 0Q23.9-3.9 23.9-7.9 23.9-11.9 23.9-15.8L23.9-15.8Q23.9-17.25 23.18-17.85 22.45-18.45 21.45-18.5 20.45-18.55 19.63-18.25 18.8-17.95 18.6-17.65L18.6-17.65 22.6-30.5Q26.25-32.1 30.5-32.1L30.5-32.1Q32.6-32.1 34.5-31.6 36.4-31.1 37.93-30.05 39.45-29 40.33-27.28 41.2-25.55 41.2-23.15L41.2-23.15Q41.2-21.7 41.2-20.2 41.2-18.7 41.2-17.25L41.2-17.25Q41.2-16.55 41.2-15.83 41.2-15.1 41.2-14.4 41.2-13.7 41.2-12.95L41.2-12.95Q41.2-9.75 41.2-6.5 41.2-3.25 41.2 0L41.2 0ZM63.8 0L46.5 0Q46.5-3.9 46.5-7.9 46.5-11.9 46.5-15.8L46.5-15.8Q46.5-17.25 45.78-17.85 45.05-18.45 44.05-18.5 43.05-18.55 42.23-18.25 41.4-17.95 41.2-17.65L41.2-17.65 44.7-30.5Q46.5-31.3 48.58-31.7 50.65-32.1 52.7-32.1L52.7-32.1Q55.6-32.1 58.13-31.2 60.65-30.3 62.23-28.35 63.8-26.4 63.8-23.15L63.8-23.15 63.8 0ZM94.6 6L77.65 6Q78.55 5 79.4 4 80.25 3 81.12 2 82 1 82.85 0L82.85 0 73.5 0Q71.85-5.2 70.2-10.35 68.55-15.5 66.9-20.68 65.25-25.85 63.6-31L63.6-31 81.95-31Q82.85-25.65 83.72-20.3 84.6-14.95 85.5-9.6L85.5-9.6Q85.5-9.6 85.52-9.45 85.55-9.3 85.55-9.3L85.55-9.3Q85.55-9.3 85.57-9.38 85.6-9.45 85.6-9.5 85.6-9.55 85.6-9.55L85.6-9.55Q86.25-13.15 86.85-16.73 87.45-20.3 88.07-23.88 88.7-27.45 89.3-31L89.3-31 106.7-31Q104.7-24.8 102.67-18.65 100.65-12.5 98.65-6.35 96.65-0.2 94.6 6L94.6 6ZM107.65-37.5L107.65-37.5 147-37.5Q150.35-37.5 152.55-36.23 154.75-34.95 155.87-32.95 157-30.95 157-28.75L157-28.75Q157-26.55 155.85-24.48 154.7-22.4 152.37-21.1 150.05-19.8 146.55-19.8L146.55-19.8Q146.55-19.8 146.52-19.8 146.5-19.8 146.52-19.78 146.55-19.75 146.55-19.75L146.55-19.75Q150.6-19.75 153.25-18.3 155.9-16.85 157.2-14.6 158.5-12.35 158.5-9.85L158.5-9.85Q158.5-8 157.77-6.25 157.05-4.5 155.6-3.08 154.15-1.65 152-0.83 149.85 0 147 0L147 0 107.65 0Q107.65-3.4 107.65-6.78 107.65-10.15 107.65-13.55 107.65-16.95 107.65-20.33 107.65-23.7 107.65-27.1L107.65-27.1Q107.65-29.7 107.65-32.3 107.65-34.9 107.65-37.5ZM127.35-17.8L127.35-17.8Q127.35-17.25 127.35-16.7 127.35-16.15 127.35-15.6L127.35-15.6Q127.35-15.2 127.35-14.83 127.35-14.45 127.35-14.1 127.35-13.75 127.35-13.4L127.35-13.4Q127.35-13.35 127.35-13.35 127.35-13.35 127.4-13.35L127.4-13.35 134.5-13.35Q135.85-13.35 136.52-14.05 137.2-14.75 137.2-15.65L137.2-15.65Q137.2-16.1 137.05-16.48 136.9-16.85 136.62-17.18 136.35-17.5 135.92-17.68 135.5-17.85 134.95-17.85L134.95-17.85 127.4-17.85Q127.4-17.85 127.37-17.82 127.35-17.8 127.35-17.8ZM134.7-24.85L127.4-24.85Q127.35-24.85 127.35-24.83 127.35-24.8 127.35-24.8L127.35-24.8Q127.35-24.5 127.35-24.13 127.35-23.75 127.35-23.38 127.35-23 127.35-22.6L127.35-22.6Q127.35-22.05 127.35-21.48 127.35-20.9 127.35-20.4L127.35-20.4Q127.35-20.35 127.35-20.35 127.35-20.35 127.4-20.35L127.4-20.35 134.25-20.35Q135.15-20.35 135.75-20.68 136.35-21 136.65-21.53 136.95-22.05 136.95-22.65L136.95-22.65Q136.95-23.5 136.37-24.18 135.8-24.85 134.7-24.85L134.7-24.85ZM177.24 0L159.94 0Q159.94-4 159.94-7.98 159.94-11.95 159.94-15.93 159.94-19.9 159.94-23.85L159.94-23.85Q159.94-27.25 159.94-30.68 159.94-34.1 159.94-37.5L159.94-37.5 177.24-37.5Q177.24-35.4 177.24-33.33 177.24-31.25 177.24-29.15L177.24-29.15Q177.24-21.9 177.24-14.6 177.24-7.3 177.24 0L177.24 0ZM201.24 1.5L201.24 1.5Q198.14 1.5 195.24 1.05 192.34 0.6 189.84-0.33 187.34-1.25 185.29-2.65 183.24-4.05 181.79-5.93 180.34-7.8 179.54-10.18 178.74-12.55 178.74-15.45L178.74-15.45Q178.74-18.85 179.87-21.58 180.99-24.3 183.07-26.35 185.14-28.4 187.94-29.78 190.74-31.15 194.12-31.83 197.49-32.5 201.24-32.5L201.24-32.5Q205.94-32.5 210.02-31.43 214.09-30.35 217.17-28.23 220.24-26.1 221.99-22.9 223.74-19.7 223.74-15.45L223.74-15.45Q223.74-11.2 221.99-8.03 220.24-4.85 217.17-2.73 214.09-0.6 210.02 0.45 205.94 1.5 201.24 1.5ZM201.29-11.75L201.29-11.75Q204.39-11.75 205.69-12.95 206.99-14.15 206.99-15.55L206.99-15.55Q206.99-16.2 206.69-16.85 206.39-17.5 205.74-18.05 205.09-18.6 203.99-18.93 202.89-19.25 201.29-19.25L201.29-19.25Q199.69-19.25 198.57-18.93 197.44-18.6 196.77-18.05 196.09-17.5 195.79-16.85 195.49-16.2 195.49-15.5L195.49-15.5Q195.49-14.8 195.79-14.13 196.09-13.45 196.79-12.93 197.49-12.4 198.59-12.08 199.69-11.75 201.29-11.75ZM268.89-31L268.89-31 251.59-31Q251.59-30.45 251.59-29.38 251.59-28.3 251.59-27.75L251.59-27.75Q251.59-27.7 251.59-27.65 251.59-27.6 251.56-27.6 251.54-27.6 251.49-27.7L251.49-27.7Q250.84-28.65 249.91-29.33 248.99-30 247.89-30.48 246.79-30.95 245.61-31.23 244.44-31.5 243.29-31.63 242.14-31.75 241.14-31.75L241.14-31.75Q238.99-31.75 236.91-31.33 234.84-30.9 233.01-30.05 231.19-29.2 229.66-27.98 228.14-26.75 227.04-25.15 225.94-23.55 225.34-21.65 224.74-19.75 224.74-17.5L224.74-17.5Q224.74-14.15 226.01-11.53 227.29-8.9 229.46-7.08 231.64-5.25 234.44-4.28 237.24-3.3 240.29-3.3L240.29-3.3Q242.39-3.3 244.44-3.55 246.49-3.8 248.59-5.05L248.59-5.05 251.59-16.8Q250.64-13.9 246.64-13.9L246.64-13.9Q245.14-13.9 243.99-14.33 242.84-14.75 242.16-15.55 241.49-16.35 241.49-17.5L241.49-17.5Q241.49-18.6 242.14-19.35 242.79-20.1 243.96-20.48 245.14-20.85 246.64-20.85L246.64-20.85Q247.74-20.85 248.64-20.63 249.54-20.4 250.21-19.98 250.89-19.55 251.24-18.9 251.59-18.25 251.59-17.35L251.59-17.35 251.59-8.1Q251.59-6.2 250.84-4.9 250.09-3.6 248.79-2.8 247.49-2 245.81-1.63 244.14-1.25 242.24-1.25L242.24-1.25Q239.94-1.25 237.59-1.7 235.24-2.15 233.16-2.93 231.09-3.7 229.64-4.65L229.64-4.65 229.64 3.3Q233.04 5.2 237.34 6.15 241.64 7.1 246.04 7.1L246.04 7.1Q249.49 7.1 252.84 6.53 256.19 5.95 259.09 4.85 261.99 3.75 264.19 2.08 266.39 0.4 267.64-1.78 268.89-3.95 268.89-6.65L268.89-6.65Q268.89-12.75 268.89-18.85 268.89-24.95 268.89-31Z" opacity="1" transform="matrix(1,0,0,1,0,0)" fill="#000000" class="wordmark-text-0" data-fill-palette-color="primary" id="text-0"></path></svg></g></svg></g></svg></g></svg></g><g></g></svg></g><defs></defs></svg><rect width="395.52" height="65.84618141097424" fill="none" stroke="none" visibility="hidden"></rect></g></svg></g></svg>